<?xml version="1.0" encoding="UTF-8"?>
<svg xmlns="http://www.w3.org/2000/svg" xmlns:xlink="http://www.w3.org/1999/xlink" width="px" height="20px" viewBox="0 0 67 20" version="1.1">
<g id="surface1">
<path style=" stroke:none;fill-rule:nonzero;fill:rgb(65.098039%,65.098039%,65.098039%);fill-opacity:1;" d="M 64.617188 20 L 2.347656 20 C 1.050781 19.996094 0 18.9375 0 17.632812 L 0 2.363281 C 0 1.058594 1.050781 0 2.347656 0 L 64.617188 0 C 65.910156 0 67 1.058594 67 2.363281 L 67 17.632812 C 67 18.9375 65.910156 20 64.617188 20 Z M 64.617188 20 "/>
<path style=" stroke:none;fill-rule:nonzero;fill:rgb(0%,0%,0%);fill-opacity:1;" d="M 66.519531 17.632812 C 66.519531 18.140625 66.320312 18.628906 65.960938 18.988281 C 65.605469 19.347656 65.121094 19.550781 64.617188 19.550781 L 2.347656 19.550781 C 1.296875 19.550781 0.441406 18.691406 0.441406 17.632812 L 0.441406 2.363281 C 0.441406 1.304688 1.296875 0.445312 2.347656 0.445312 L 64.617188 0.445312 C 65.667969 0.445312 66.519531 1.304688 66.519531 2.363281 Z M 66.519531 17.632812 "/>
<path style=" stroke:none;fill-rule:nonzero;fill:rgb(100%,100%,100%);fill-opacity:1;" d="M 14.953125 9.890625 C 14.9375 8.28125 16.261719 7.496094 16.320312 7.460938 C 15.574219 6.359375 14.410156 6.207031 14.003906 6.195312 C 13.027344 6.09375 12.078125 6.785156 11.582031 6.785156 C 11.074219 6.785156 10.308594 6.207031 9.484375 6.222656 C 8.421875 6.238281 7.425781 6.859375 6.882812 7.820312 C 5.757812 9.78125 6.597656 12.664062 7.675781 14.25 C 8.214844 15.027344 8.84375 15.894531 9.667969 15.863281 C 10.472656 15.828125 10.773438 15.34375 11.746094 15.34375 C 12.710938 15.34375 12.996094 15.863281 13.835938 15.84375 C 14.699219 15.828125 15.246094 15.0625 15.765625 14.28125 C 16.390625 13.390625 16.640625 12.515625 16.648438 12.46875 C 16.628906 12.460938 14.96875 11.824219 14.953125 9.890625 Z M 13.363281 5.152344 C 13.796875 4.605469 14.09375 3.863281 14.011719 3.109375 C 13.382812 3.136719 12.597656 3.546875 12.148438 4.082031 C 11.746094 4.550781 11.390625 5.324219 11.480469 6.050781 C 12.1875 6.101562 12.910156 5.691406 13.363281 5.152344 Z M 13.363281 5.152344 "/>
<path style=" stroke:none;fill-rule:nonzero;fill:rgb(100%,100%,100%);fill-opacity:1;" d="M 26.625 15.753906 L 25.496094 15.753906 L 24.878906 13.796875 L 22.734375 13.796875 L 22.144531 15.753906 L 21.046875 15.753906 L 23.175781 9.097656 L 24.488281 9.097656 Z M 24.691406 12.976562 L 24.136719 11.238281 C 24.074219 11.0625 23.964844 10.644531 23.800781 9.988281 L 23.78125 9.988281 C 23.683594 10.40625 23.578125 10.824219 23.46875 11.238281 L 22.921875 12.976562 Z M 32.089844 13.292969 C 32.089844 14.109375 31.875 14.753906 31.433594 15.230469 C 31.042969 15.648438 30.554688 15.859375 29.972656 15.859375 C 29.347656 15.859375 28.894531 15.632812 28.621094 15.179688 L 28.601562 15.179688 L 28.601562 17.707031 L 27.542969 17.707031 L 27.542969 12.535156 C 27.542969 12.019531 27.53125 11.492188 27.503906 10.953125 L 28.4375 10.953125 L 28.496094 11.714844 L 28.515625 11.714844 C 28.867188 11.140625 29.402344 10.855469 30.121094 10.855469 C 30.683594 10.855469 31.152344 11.078125 31.527344 11.527344 C 31.902344 11.972656 32.089844 12.5625 32.089844 13.292969 Z M 31.011719 13.332031 C 31.011719 12.867188 30.910156 12.480469 30.699219 12.179688 C 30.472656 11.863281 30.164062 11.703125 29.777344 11.703125 C 29.519531 11.703125 29.28125 11.792969 29.070312 11.964844 C 28.855469 12.140625 28.714844 12.371094 28.652344 12.652344 C 28.621094 12.785156 28.601562 12.890625 28.601562 12.976562 L 28.601562 13.777344 C 28.601562 14.125 28.710938 14.421875 28.921875 14.660156 C 29.132812 14.902344 29.410156 15.023438 29.75 15.023438 C 30.148438 15.023438 30.457031 14.867188 30.679688 14.558594 C 30.902344 14.246094 31.011719 13.839844 31.011719 13.332031 Z M 37.570312 13.292969 C 37.570312 14.109375 37.351562 14.753906 36.910156 15.230469 C 36.519531 15.648438 36.035156 15.859375 35.453125 15.859375 C 34.824219 15.859375 34.375 15.632812 34.101562 15.179688 L 34.082031 15.179688 L 34.082031 17.707031 L 33.023438 17.707031 L 33.023438 12.535156 C 33.023438 12.019531 33.007812 11.492188 32.984375 10.953125 L 33.914062 10.953125 L 33.972656 11.714844 L 33.992188 11.714844 C 34.34375 11.140625 34.878906 10.855469 35.601562 10.855469 C 36.160156 10.855469 36.628906 11.078125 37.007812 11.527344 C 37.382812 11.972656 37.570312 12.5625 37.570312 13.292969 Z M 36.492188 13.332031 C 36.492188 12.867188 36.386719 12.480469 36.175781 12.179688 C 35.949219 11.863281 35.640625 11.703125 35.257812 11.703125 C 34.996094 11.703125 34.746094 11.796875 34.546875 11.964844 C 34.332031 12.140625 34.195312 12.371094 34.128906 12.652344 C 34.097656 12.785156 34.078125 12.890625 34.078125 12.976562 L 34.078125 13.777344 C 34.078125 14.125 34.1875 14.421875 34.398438 14.660156 C 34.609375 14.902344 34.886719 15.023438 35.226562 15.023438 C 35.625 15.023438 35.933594 14.867188 36.15625 14.558594 C 36.378906 14.246094 36.488281 13.839844 36.488281 13.332031 Z M 43.695312 13.886719 C 43.695312 14.453125 43.5 14.914062 43.105469 15.269531 C 42.675781 15.65625 42.078125 15.851562 41.308594 15.851562 C 40.597656 15.851562 40.027344 15.714844 39.59375 15.4375 L 39.839844 14.546875 C 40.304688 14.832031 40.816406 14.972656 41.371094 14.972656 C 41.769531 14.972656 42.078125 14.882812 42.300781 14.699219 C 42.523438 14.519531 42.632812 14.277344 42.632812 13.972656 C 42.632812 13.703125 42.542969 13.476562 42.359375 13.292969 C 42.179688 13.109375 41.875 12.9375 41.449219 12.777344 C 40.292969 12.34375 39.714844 11.707031 39.714844 10.871094 C 39.714844 10.324219 39.917969 9.875 40.324219 9.523438 C 40.726562 9.175781 41.265625 9 41.941406 9 C 42.539062 9 43.039062 9.109375 43.4375 9.316406 L 43.171875 10.1875 C 42.800781 9.984375 42.378906 9.882812 41.910156 9.882812 C 41.539062 9.882812 41.246094 9.972656 41.039062 10.15625 C 40.867188 10.308594 40.769531 10.53125 40.773438 10.761719 C 40.773438 11.023438 40.875 11.242188 41.078125 11.410156 C 41.253906 11.570312 41.574219 11.742188 42.039062 11.925781 C 42.605469 12.15625 43.023438 12.425781 43.292969 12.734375 C 43.558594 13.042969 43.695312 13.429688 43.695312 13.886719 Z M 47.191406 11.753906 L 46.027344 11.753906 L 46.027344 14.085938 C 46.027344 14.675781 46.230469 14.972656 46.644531 14.972656 C 46.832031 14.972656 46.988281 14.957031 47.113281 14.921875 L 47.140625 15.730469 C 46.933594 15.808594 46.660156 15.851562 46.320312 15.851562 C 45.902344 15.851562 45.574219 15.722656 45.339844 15.464844 C 45.105469 15.207031 44.984375 14.777344 44.984375 14.171875 L 44.984375 11.753906 L 44.292969 11.753906 L 44.292969 10.953125 L 44.984375 10.953125 L 44.984375 10.074219 L 46.023438 9.757812 L 46.023438 10.953125 L 47.191406 10.953125 Z M 52.453125 13.3125 C 52.453125 14.050781 52.246094 14.65625 51.828125 15.128906 C 51.386719 15.617188 50.808594 15.859375 50.082031 15.859375 C 49.382812 15.859375 48.828125 15.628906 48.414062 15.160156 C 47.996094 14.691406 47.789062 14.101562 47.789062 13.394531 C 47.789062 12.648438 48.003906 12.039062 48.429688 11.566406 C 48.859375 11.09375 49.4375 10.855469 50.160156 10.855469 C 50.859375 10.855469 51.421875 11.089844 51.84375 11.558594 C 52.25 12.011719 52.453125 12.597656 52.453125 13.3125 Z M 51.355469 13.347656 C 51.355469 12.90625 51.261719 12.527344 51.074219 12.210938 C 50.851562 11.824219 50.535156 11.632812 50.121094 11.632812 C 49.695312 11.632812 49.375 11.828125 49.152344 12.210938 C 48.960938 12.527344 48.867188 12.910156 48.867188 13.367188 C 48.867188 13.808594 48.960938 14.191406 49.152344 14.503906 C 49.378906 14.886719 49.699219 15.078125 50.113281 15.078125 C 50.515625 15.078125 50.835938 14.882812 51.0625 14.496094 C 51.257812 14.171875 51.355469 13.789062 51.355469 13.347656 Z M 55.894531 11.890625 C 55.789062 11.871094 55.675781 11.863281 55.558594 11.863281 C 55.1875 11.863281 54.898438 12.003906 54.695312 12.285156 C 54.519531 12.535156 54.433594 12.851562 54.433594 13.234375 L 54.433594 15.75 L 53.375 15.75 L 53.386719 12.464844 C 53.386719 11.910156 53.371094 11.40625 53.347656 10.953125 L 54.265625 10.953125 L 54.304688 11.871094 L 54.335938 11.871094 C 54.445312 11.558594 54.625 11.300781 54.863281 11.113281 C 55.085938 10.945312 55.351562 10.855469 55.628906 10.855469 C 55.726562 10.855469 55.816406 10.863281 55.894531 10.875 Z M 60.625 13.125 C 60.628906 13.289062 60.617188 13.449219 60.585938 13.609375 L 57.414062 13.609375 C 57.425781 14.082031 57.578125 14.445312 57.875 14.695312 C 58.140625 14.917969 58.488281 15.03125 58.910156 15.03125 C 59.382812 15.03125 59.808594 14.957031 60.195312 14.804688 L 60.363281 15.542969 C 59.910156 15.742188 59.378906 15.839844 58.765625 15.839844 C 58.027344 15.839844 57.445312 15.621094 57.023438 15.183594 C 56.605469 14.746094 56.394531 14.160156 56.394531 13.421875 C 56.394531 12.699219 56.589844 12.09375 56.980469 11.613281 C 57.394531 11.101562 57.949219 10.84375 58.648438 10.84375 C 59.332031 10.84375 59.851562 11.101562 60.207031 11.613281 C 60.484375 12.023438 60.625 12.527344 60.625 13.125 Z M 59.617188 12.847656 C 59.625 12.53125 59.554688 12.257812 59.410156 12.03125 C 59.226562 11.734375 58.945312 11.585938 58.566406 11.585938 C 58.222656 11.585938 57.941406 11.730469 57.726562 12.019531 C 57.550781 12.25 57.445312 12.527344 57.414062 12.847656 Z M 59.617188 12.847656 "/>
<path style=" stroke:none;fill-rule:nonzero;fill:rgb(100%,100%,100%);fill-opacity:1;" d="M 24.34375 5.003906 C 24.34375 5.59375 24.167969 6.035156 23.816406 6.332031 C 23.496094 6.609375 23.035156 6.746094 22.4375 6.746094 C 22.140625 6.746094 21.886719 6.734375 21.675781 6.707031 L 21.675781 3.492188 C 21.953125 3.445312 22.25 3.421875 22.570312 3.421875 C 23.140625 3.421875 23.570312 3.546875 23.855469 3.796875 C 24.179688 4.078125 24.34375 4.480469 24.34375 5.003906 Z M 23.796875 5.019531 C 23.796875 4.636719 23.695312 4.34375 23.496094 4.140625 C 23.292969 3.9375 23 3.835938 22.613281 3.835938 C 22.449219 3.835938 22.3125 3.847656 22.195312 3.871094 L 22.195312 6.3125 C 22.261719 6.324219 22.378906 6.328125 22.546875 6.328125 C 22.945312 6.328125 23.253906 6.214844 23.46875 5.992188 C 23.6875 5.769531 23.792969 5.445312 23.792969 5.019531 Z M 27.25 5.519531 C 27.25 5.882812 27.148438 6.179688 26.941406 6.410156 C 26.726562 6.652344 26.441406 6.769531 26.085938 6.769531 C 25.742188 6.769531 25.46875 6.65625 25.265625 6.425781 C 25.0625 6.195312 24.960938 5.90625 24.960938 5.558594 C 24.960938 5.191406 25.0625 4.890625 25.273438 4.660156 C 25.484375 4.429688 25.769531 4.3125 26.125 4.3125 C 26.46875 4.3125 26.742188 4.425781 26.953125 4.65625 C 27.152344 4.878906 27.25 5.167969 27.25 5.519531 Z M 26.710938 5.535156 C 26.710938 5.320312 26.664062 5.132812 26.574219 4.976562 C 26.464844 4.789062 26.308594 4.695312 26.105469 4.695312 C 25.898438 4.695312 25.738281 4.789062 25.628906 4.976562 C 25.535156 5.132812 25.488281 5.320312 25.488281 5.546875 C 25.488281 5.761719 25.535156 5.949219 25.628906 6.105469 C 25.742188 6.292969 25.898438 6.386719 26.101562 6.386719 C 26.296875 6.386719 26.453125 6.292969 26.566406 6.101562 C 26.664062 5.941406 26.710938 5.753906 26.710938 5.535156 Z M 31.148438 4.359375 L 30.417969 6.714844 L 29.941406 6.714844 L 29.640625 5.691406 C 29.5625 5.441406 29.5 5.1875 29.449219 4.929688 L 29.441406 4.929688 C 29.394531 5.191406 29.332031 5.445312 29.253906 5.691406 L 28.929688 6.714844 L 28.449219 6.714844 L 27.761719 4.359375 L 28.292969 4.359375 L 28.558594 5.480469 C 28.625 5.746094 28.675781 5.996094 28.71875 6.238281 L 28.726562 6.238281 C 28.765625 6.039062 28.832031 5.789062 28.921875 5.484375 L 29.253906 4.359375 L 29.675781 4.359375 L 29.996094 5.460938 C 30.070312 5.730469 30.132812 5.988281 30.183594 6.238281 L 30.195312 6.238281 C 30.230469 5.996094 30.285156 5.734375 30.355469 5.460938 L 30.640625 4.359375 L 31.152344 4.359375 Z M 33.847656 6.714844 L 33.328125 6.714844 L 33.328125 5.367188 C 33.328125 4.949219 33.167969 4.742188 32.855469 4.742188 C 32.710938 4.738281 32.570312 4.800781 32.480469 4.914062 C 32.382812 5.027344 32.335938 5.164062 32.335938 5.316406 L 32.335938 6.714844 L 31.8125 6.714844 L 31.8125 5.03125 C 31.8125 4.808594 31.808594 4.582031 31.796875 4.359375 L 32.253906 4.359375 L 32.277344 4.726562 L 32.292969 4.726562 C 32.351562 4.613281 32.441406 4.519531 32.5625 4.441406 C 32.703125 4.355469 32.867188 4.308594 33.03125 4.308594 C 33.25 4.308594 33.433594 4.382812 33.578125 4.523438 C 33.757812 4.699219 33.847656 4.957031 33.847656 5.304688 Z M 35.28125 6.714844 L 34.761719 6.714844 L 34.761719 3.277344 L 35.28125 3.277344 Z M 38.34375 5.519531 C 38.34375 5.882812 38.238281 6.179688 38.035156 6.410156 C 37.820312 6.652344 37.535156 6.769531 37.175781 6.769531 C 36.832031 6.769531 36.558594 6.65625 36.355469 6.425781 C 36.152344 6.195312 36.050781 5.90625 36.050781 5.558594 C 36.050781 5.191406 36.15625 4.890625 36.367188 4.660156 C 36.578125 4.429688 36.859375 4.3125 37.214844 4.3125 C 37.558594 4.3125 37.835938 4.425781 38.042969 4.65625 C 38.242188 4.878906 38.34375 5.167969 38.34375 5.519531 Z M 37.804688 5.535156 C 37.804688 5.320312 37.757812 5.132812 37.664062 4.976562 C 37.554688 4.789062 37.398438 4.695312 37.199219 4.695312 C 36.988281 4.695312 36.828125 4.789062 36.722656 4.976562 C 36.625 5.132812 36.582031 5.320312 36.582031 5.546875 C 36.582031 5.761719 36.628906 5.949219 36.71875 6.105469 C 36.832031 6.292969 36.988281 6.386719 37.191406 6.386719 C 37.390625 6.386719 37.546875 6.292969 37.660156 6.101562 C 37.753906 5.941406 37.804688 5.753906 37.804688 5.535156 Z M 40.859375 6.714844 L 40.394531 6.714844 L 40.355469 6.445312 L 40.339844 6.445312 C 40.179688 6.660156 39.953125 6.769531 39.65625 6.769531 C 39.4375 6.769531 39.257812 6.699219 39.121094 6.554688 C 39 6.425781 38.933594 6.253906 38.9375 6.078125 C 38.9375 5.789062 39.058594 5.570312 39.296875 5.417969 C 39.535156 5.265625 39.875 5.191406 40.308594 5.195312 L 40.308594 5.148438 C 40.308594 4.839844 40.144531 4.683594 39.820312 4.683594 C 39.589844 4.683594 39.386719 4.742188 39.210938 4.859375 L 39.105469 4.515625 C 39.324219 4.378906 39.589844 4.3125 39.90625 4.3125 C 40.519531 4.3125 40.824219 4.636719 40.824219 5.285156 L 40.824219 6.15625 C 40.824219 6.390625 40.835938 6.578125 40.859375 6.714844 Z M 40.320312 5.90625 L 40.320312 5.542969 C 39.746094 5.53125 39.460938 5.691406 39.460938 6.019531 C 39.460938 6.140625 39.492188 6.234375 39.558594 6.292969 C 39.628906 6.355469 39.71875 6.390625 39.8125 6.386719 C 39.925781 6.386719 40.035156 6.347656 40.132812 6.277344 C 40.25 6.191406 40.324219 6.054688 40.320312 5.90625 Z M 43.816406 6.714844 L 43.355469 6.714844 L 43.328125 6.339844 L 43.316406 6.339844 C 43.167969 6.625 42.917969 6.769531 42.5625 6.769531 C 42.28125 6.769531 42.046875 6.660156 41.859375 6.433594 C 41.675781 6.210938 41.582031 5.921875 41.582031 5.566406 C 41.582031 5.1875 41.683594 4.878906 41.886719 4.640625 C 42.082031 4.421875 42.320312 4.3125 42.609375 4.3125 C 42.921875 4.3125 43.140625 4.417969 43.269531 4.632812 L 43.277344 4.632812 L 43.277344 3.277344 L 43.796875 3.277344 L 43.796875 6.082031 C 43.796875 6.3125 43.804688 6.523438 43.816406 6.714844 Z M 43.277344 5.722656 L 43.277344 5.328125 C 43.285156 5.144531 43.210938 4.96875 43.074219 4.847656 C 42.980469 4.761719 42.855469 4.714844 42.726562 4.71875 C 42.53125 4.71875 42.378906 4.796875 42.269531 4.949219 C 42.15625 5.105469 42.101562 5.304688 42.101562 5.546875 C 42.101562 5.78125 42.15625 5.96875 42.261719 6.113281 C 42.375 6.269531 42.527344 6.347656 42.714844 6.347656 C 42.886719 6.347656 43.023438 6.28125 43.128906 6.152344 C 43.226562 6.035156 43.277344 5.890625 43.277344 5.722656 Z M 48.265625 5.519531 C 48.265625 5.882812 48.160156 6.179688 47.957031 6.410156 C 47.738281 6.652344 47.453125 6.769531 47.097656 6.769531 C 46.757812 6.769531 46.480469 6.65625 46.277344 6.425781 C 46.074219 6.195312 45.972656 5.90625 45.972656 5.558594 C 45.972656 5.191406 46.078125 4.890625 46.289062 4.660156 C 46.5 4.429688 46.78125 4.3125 47.136719 4.3125 C 47.480469 4.3125 47.757812 4.425781 47.964844 4.65625 C 48.164062 4.878906 48.261719 5.167969 48.261719 5.519531 Z M 47.726562 5.535156 C 47.726562 5.320312 47.679688 5.132812 47.585938 4.976562 C 47.476562 4.789062 47.320312 4.695312 47.117188 4.695312 C 46.910156 4.695312 46.75 4.789062 46.640625 4.976562 C 46.546875 5.132812 46.503906 5.320312 46.503906 5.546875 C 46.503906 5.761719 46.546875 5.949219 46.640625 6.105469 C 46.753906 6.292969 46.910156 6.386719 47.113281 6.386719 C 47.3125 6.386719 47.46875 6.292969 47.578125 6.101562 C 47.675781 5.941406 47.726562 5.753906 47.726562 5.535156 Z M 51.058594 6.714844 L 50.539062 6.714844 L 50.539062 5.367188 C 50.539062 4.949219 50.382812 4.742188 50.070312 4.742188 C 49.914062 4.742188 49.789062 4.800781 49.695312 4.914062 C 49.597656 5.027344 49.546875 5.164062 49.546875 5.316406 L 49.546875 6.714844 L 49.027344 6.714844 L 49.027344 5.03125 C 49.027344 4.824219 49.023438 4.601562 49.007812 4.359375 L 49.464844 4.359375 L 49.492188 4.726562 L 49.503906 4.726562 C 49.570312 4.609375 49.660156 4.511719 49.773438 4.441406 C 49.914062 4.355469 50.074219 4.308594 50.246094 4.308594 C 50.464844 4.308594 50.644531 4.382812 50.789062 4.523438 C 50.96875 4.699219 51.058594 4.957031 51.058594 5.304688 Z M 54.5625 4.753906 L 53.988281 4.753906 L 53.988281 5.898438 C 53.988281 6.1875 54.089844 6.332031 54.289062 6.332031 C 54.386719 6.332031 54.460938 6.324219 54.523438 6.308594 L 54.535156 6.707031 C 54.433594 6.746094 54.296875 6.765625 54.132812 6.765625 C 53.925781 6.765625 53.765625 6.703125 53.652344 6.574219 C 53.535156 6.449219 53.476562 6.238281 53.476562 5.941406 L 53.476562 4.75 L 53.136719 4.75 L 53.136719 4.359375 L 53.476562 4.359375 L 53.476562 3.925781 L 53.988281 3.773438 L 53.988281 4.359375 L 54.5625 4.359375 Z M 57.3125 6.714844 L 56.792969 6.714844 L 56.792969 5.375 C 56.792969 4.953125 56.636719 4.742188 56.324219 4.742188 C 56.082031 4.742188 55.917969 4.863281 55.828125 5.109375 C 55.8125 5.160156 55.800781 5.226562 55.800781 5.296875 L 55.800781 6.714844 L 55.28125 6.714844 L 55.28125 3.277344 L 55.800781 3.277344 L 55.800781 4.699219 L 55.8125 4.699219 C 55.976562 4.441406 56.210938 4.3125 56.515625 4.3125 C 56.730469 4.3125 56.910156 4.382812 57.050781 4.523438 C 57.226562 4.703125 57.316406 4.964844 57.316406 5.316406 L 57.316406 6.714844 Z M 60.15625 5.425781 C 60.15625 5.519531 60.148438 5.597656 60.132812 5.664062 L 58.574219 5.664062 C 58.582031 5.898438 58.65625 6.074219 58.800781 6.199219 C 58.933594 6.308594 59.105469 6.363281 59.3125 6.363281 C 59.542969 6.363281 59.753906 6.324219 59.941406 6.25 L 60.023438 6.613281 C 59.800781 6.710938 59.542969 6.761719 59.238281 6.761719 C 58.875 6.761719 58.589844 6.652344 58.386719 6.4375 C 58.175781 6.222656 58.074219 5.933594 58.074219 5.574219 C 58.074219 5.21875 58.171875 4.921875 58.363281 4.683594 C 58.566406 4.433594 58.835938 4.308594 59.179688 4.308594 C 59.519531 4.308594 59.773438 4.433594 59.945312 4.683594 C 60.085938 4.886719 60.152344 5.132812 60.152344 5.425781 Z M 59.660156 5.292969 C 59.664062 5.148438 59.628906 5.007812 59.558594 4.886719 C 59.46875 4.742188 59.328125 4.671875 59.144531 4.671875 C 58.980469 4.667969 58.824219 4.746094 58.730469 4.882812 C 58.640625 5.003906 58.589844 5.144531 58.574219 5.289062 L 59.65625 5.289062 Z M 59.660156 5.292969 "/>
</g>
</svg>
