<?xml version="1.0" encoding="UTF-8"?>
<svg xmlns="http://www.w3.org/2000/svg" xmlns:xlink="http://www.w3.org/1999/xlink" width="px" height="20px" viewBox="0 0 68 20" version="1.1">
<defs>
<linearGradient id="linear0" gradientUnits="userSpaceOnUse" x1="31.8" y1="183.29" x2="15.017" y2="166.508" gradientTransform="matrix(0.501198,0,0,0.495358,-4.897982,-75.1374)">
<stop offset="0" style="stop-color:rgb(0%,62.745098%,100%);stop-opacity:1;"/>
<stop offset="0.007" style="stop-color:rgb(0%,63.137255%,100%);stop-opacity:1;"/>
<stop offset="0.26" style="stop-color:rgb(0%,74.509804%,100%);stop-opacity:1;"/>
<stop offset="0.512" style="stop-color:rgb(0%,82.352941%,100%);stop-opacity:1;"/>
<stop offset="0.76" style="stop-color:rgb(0%,87.45098%,100%);stop-opacity:1;"/>
<stop offset="1" style="stop-color:rgb(0%,89.019608%,100%);stop-opacity:1;"/>
</linearGradient>
<linearGradient id="linear1" gradientUnits="userSpaceOnUse" x1="43.834" y1="171.999" x2="19.638" y2="171.999" gradientTransform="matrix(0.501198,0,0,0.495358,-4.897982,-75.1374)">
<stop offset="0" style="stop-color:rgb(100%,87.843137%,0%);stop-opacity:1;"/>
<stop offset="0.409" style="stop-color:rgb(100%,74.117647%,0%);stop-opacity:1;"/>
<stop offset="0.775" style="stop-color:rgb(100%,64.705882%,0%);stop-opacity:1;"/>
<stop offset="1" style="stop-color:rgb(100%,61.176471%,0%);stop-opacity:1;"/>
</linearGradient>
<linearGradient id="linear2" gradientUnits="userSpaceOnUse" x1="34.827" y1="169.704" x2="12.069" y2="146.946" gradientTransform="matrix(0.501198,0,0,0.495358,-4.897982,-75.1374)">
<stop offset="0" style="stop-color:rgb(100%,22.745098%,26.666667%);stop-opacity:1;"/>
<stop offset="1" style="stop-color:rgb(76.470588%,6.666667%,38.431373%);stop-opacity:1;"/>
</linearGradient>
<linearGradient id="linear3" gradientUnits="userSpaceOnUse" x1="17.297" y1="191.824" x2="27.46" y2="181.661" gradientTransform="matrix(0.501198,0,0,0.495358,-4.897982,-75.1374)">
<stop offset="0" style="stop-color:rgb(19.607843%,62.745098%,44.313725%);stop-opacity:1;"/>
<stop offset="0.069" style="stop-color:rgb(17.647059%,65.490196%,44.313725%);stop-opacity:1;"/>
<stop offset="0.476" style="stop-color:rgb(8.235294%,81.176471%,45.490196%);stop-opacity:1;"/>
<stop offset="0.801" style="stop-color:rgb(2.352941%,90.588235%,45.882353%);stop-opacity:1;"/>
<stop offset="1" style="stop-color:rgb(0%,94.117647%,46.27451%);stop-opacity:1;"/>
</linearGradient>
</defs>
<g id="surface1">
<path style=" stroke:none;fill-rule:nonzero;fill:rgb(0%,0%,0%);fill-opacity:1;" d="M 65.269531 19.972656 L 2.621094 19.972656 C 1.242188 19.972656 0.113281 18.855469 0.113281 17.496094 L 0.113281 2.632812 C 0.113281 1.273438 1.242188 0.15625 2.621094 0.15625 L 65.269531 0.15625 C 66.648438 0.15625 67.773438 1.273438 67.773438 2.632812 L 67.773438 17.496094 C 67.773438 18.855469 66.648438 19.972656 65.269531 19.972656 Z M 65.269531 19.972656 "/>
<path style=" stroke:none;fill-rule:nonzero;fill:rgb(65.098039%,65.098039%,65.098039%);fill-opacity:1;" d="M 65.269531 0.554688 C 66.429688 0.554688 67.375 1.488281 67.375 2.632812 L 67.375 17.492188 C 67.375 18.640625 66.429688 19.574219 65.269531 19.574219 L 2.621094 19.574219 C 1.460938 19.574219 0.515625 18.640625 0.515625 17.492188 L 0.515625 2.636719 C 0.515625 1.488281 1.460938 0.554688 2.621094 0.554688 L 65.269531 0.554688 M 65.269531 0.15625 L 2.621094 0.15625 C 1.242188 0.15625 0.113281 1.273438 0.113281 2.632812 L 0.113281 17.496094 C 0.113281 18.855469 1.242188 19.972656 2.621094 19.972656 L 65.269531 19.972656 C 66.648438 19.972656 67.773438 18.855469 67.773438 17.496094 L 67.773438 2.632812 C 67.773438 1.273438 66.648438 0.15625 65.269531 0.15625 Z M 65.269531 0.15625 "/>
<path style="fill-rule:nonzero;fill:rgb(100%,100%,100%);fill-opacity:1;stroke-width:0.16;stroke-linecap:butt;stroke-linejoin:miter;stroke:rgb(100%,100%,100%);stroke-opacity:1;stroke-miterlimit:10;" d="M 45.932949 16.194185 C 45.932949 16.862893 45.733427 17.399121 45.340618 17.796561 C 44.885459 18.269703 44.299364 18.509429 43.576097 18.509429 C 42.884005 18.509429 42.291675 18.269703 41.811575 17.790252 C 41.325241 17.304492 41.082073 16.711487 41.082073 15.998619 C 41.082073 15.29206 41.325241 14.692746 41.80534 14.213295 C 42.27297 13.740153 42.908946 13.481501 43.569862 13.494119 C 43.919025 13.494119 44.243248 13.563513 44.555001 13.695993 C 44.866754 13.828473 45.122391 14.005112 45.309443 14.225912 L 44.885459 14.648586 C 44.567471 14.270072 44.131017 14.087124 43.569862 14.087124 C 43.064822 14.087124 42.628368 14.263764 42.260499 14.617043 C 41.892631 14.970323 41.711814 15.430848 41.711814 15.998619 C 41.711814 16.56639 41.892631 17.026916 42.260499 17.386504 C 42.628368 17.733475 43.064822 17.916423 43.569862 17.916423 C 44.106077 17.916423 44.555001 17.733475 44.910399 17.380195 C 45.147332 17.146778 45.278268 16.825041 45.315678 16.408676 L 43.569862 16.408676 L 43.569862 15.828288 L 45.895539 15.828288 C 45.920479 15.954459 45.932949 16.074322 45.932949 16.194185 Z M 49.617868 14.188061 L 47.441833 14.188061 L 47.441833 15.708425 L 49.405876 15.708425 L 49.405876 16.288813 L 47.441833 16.288813 L 47.441833 17.809178 L 49.624103 17.809178 L 49.624103 18.395874 L 46.824562 18.395874 L 46.824562 13.601364 L 49.624103 13.601364 L 49.624103 14.194369 Z M 52.224123 18.395874 L 51.606852 18.395874 L 51.606852 14.188061 L 50.266314 14.188061 L 50.266314 13.601364 L 53.56466 13.601364 L 53.56466 14.194369 L 52.224123 14.194369 Z M 55.952688 18.395874 L 55.952688 13.601364 L 56.563723 13.601364 L 56.563723 18.395874 L 55.946453 18.395874 Z M 59.300914 18.395874 L 58.689878 18.395874 L 58.689878 14.188061 L 57.343106 14.188061 L 57.343106 13.601364 L 60.641452 13.601364 L 60.641452 14.194369 L 59.300914 14.194369 Z M 66.88898 17.777635 C 66.415116 18.263395 65.82902 18.509429 65.130694 18.509429 C 64.426132 18.509429 63.840037 18.263395 63.366172 17.783944 C 62.892308 17.298184 62.661611 16.705179 62.661611 15.998619 C 62.661611 15.298368 62.892308 14.705363 63.366172 14.219604 C 63.840037 13.733844 64.426132 13.494119 65.130694 13.494119 C 65.822785 13.494119 66.408881 13.733844 66.882745 14.225912 C 67.35661 14.711672 67.593542 15.304677 67.593542 15.998619 C 67.593542 16.705179 67.35661 17.298184 66.882745 17.783944 Z M 63.821331 17.380195 C 64.182965 17.739784 64.613184 17.916423 65.130694 17.916423 C 65.641969 17.916423 66.078423 17.739784 66.427586 17.380195 C 66.782984 17.020607 66.963801 16.560082 66.963801 15.998619 C 66.963801 15.437157 66.782984 14.98294 66.427586 14.617043 C 66.078423 14.263764 65.641969 14.080815 65.130694 14.080815 C 64.613184 14.080815 64.17673 14.263764 63.821331 14.623352 C 63.465933 14.98294 63.285116 15.443465 63.285116 15.998619 C 63.285116 16.560082 63.465933 17.020607 63.821331 17.380195 Z M 68.460215 18.395874 L 68.460215 13.601364 L 69.208422 13.601364 L 71.540334 17.329727 L 71.571509 17.329727 L 71.540334 16.408676 L 71.540334 13.601364 L 72.157605 13.601364 L 72.157605 18.395874 L 71.515394 18.395874 L 69.071251 14.484563 L 69.04631 14.484563 L 69.071251 15.411923 L 69.071251 18.395874 Z M 68.460215 18.395874 " transform="matrix(0.626498,0,0,0.619198,-4.897982,-4.796934)"/>
<path style=" stroke:none;fill-rule:nonzero;fill:rgb(100%,100%,100%);fill-opacity:1;" d="M 34.261719 10.933594 C 33.085938 10.933594 32.125 11.816406 32.125 13.039062 C 32.125 14.25 33.085938 15.144531 34.261719 15.144531 C 35.441406 15.144531 36.402344 14.25 36.402344 13.039062 C 36.402344 11.816406 35.441406 10.929688 34.261719 10.929688 Z M 34.261719 14.316406 C 33.617188 14.316406 33.0625 13.789062 33.0625 13.039062 C 33.0625 12.28125 33.617188 11.761719 34.261719 11.761719 C 34.910156 11.761719 35.46875 12.277344 35.46875 13.039062 C 35.46875 13.789062 34.910156 14.316406 34.261719 14.316406 Z M 29.597656 10.933594 C 28.417969 10.933594 27.457031 11.816406 27.457031 13.039062 C 27.457031 14.25 28.417969 15.144531 29.597656 15.144531 C 30.773438 15.144531 31.734375 14.25 31.734375 13.039062 C 31.734375 11.816406 30.773438 10.929688 29.597656 10.929688 Z M 29.597656 14.316406 C 28.949219 14.316406 28.390625 13.789062 28.390625 13.039062 C 28.390625 12.28125 28.949219 11.761719 29.597656 11.761719 C 30.242188 11.761719 30.796875 12.277344 30.796875 13.039062 C 30.796875 13.789062 30.242188 14.316406 29.597656 14.316406 Z M 24.042969 11.578125 L 24.042969 12.472656 L 26.207031 12.472656 C 26.144531 12.972656 25.972656 13.339844 25.714844 13.597656 C 25.398438 13.90625 24.90625 14.25 24.042969 14.25 C 23.410156 14.253906 22.804688 14.003906 22.359375 13.558594 C 21.914062 13.113281 21.664062 12.503906 21.667969 11.875 C 21.664062 11.242188 21.914062 10.636719 22.359375 10.1875 C 22.804688 9.742188 23.410156 9.492188 24.042969 9.496094 C 24.761719 9.496094 25.285156 9.773438 25.671875 10.132812 L 26.308594 9.503906 C 25.769531 8.992188 25.050781 8.601562 24.042969 8.601562 C 22.21875 8.601562 20.683594 10.070312 20.683594 11.875 C 20.683594 13.679688 22.21875 15.148438 24.042969 15.148438 C 25.027344 15.148438 25.769531 14.828125 26.351562 14.226562 C 26.949219 13.636719 27.136719 12.808594 27.136719 12.136719 C 27.136719 11.929688 27.117188 11.738281 27.085938 11.578125 Z M 46.75 12.273438 C 46.574219 11.800781 46.03125 10.933594 44.925781 10.933594 C 43.828125 10.933594 42.914062 11.785156 42.914062 13.039062 C 42.914062 14.21875 43.820312 15.144531 45.03125 15.144531 C 46.011719 15.144531 46.574219 14.554688 46.808594 14.210938 L 46.082031 13.734375 C 45.839844 14.082031 45.507812 14.316406 45.03125 14.316406 C 44.554688 14.316406 44.214844 14.101562 44 13.675781 L 46.847656 12.511719 Z M 43.84375 12.972656 C 43.820312 12.160156 44.480469 11.746094 44.957031 11.746094 C 45.328125 11.746094 45.644531 11.929688 45.75 12.191406 Z M 41.527344 15.019531 L 42.464844 15.019531 L 42.464844 8.824219 L 41.527344 8.824219 Z M 39.992188 11.402344 L 39.960938 11.402344 C 39.75 11.15625 39.347656 10.933594 38.839844 10.933594 C 37.773438 10.933594 36.796875 11.859375 36.796875 13.046875 C 36.796875 14.226562 37.773438 15.148438 38.839844 15.148438 C 39.347656 15.148438 39.75 14.921875 39.960938 14.667969 L 39.992188 14.667969 L 39.992188 14.96875 C 39.992188 15.773438 39.558594 16.207031 38.855469 16.207031 C 38.28125 16.207031 37.925781 15.800781 37.777344 15.453125 L 36.964844 15.792969 C 37.199219 16.351562 37.820312 17.035156 38.855469 17.035156 C 39.953125 17.035156 40.878906 16.398438 40.878906 14.84375 L 40.878906 11.058594 L 39.992188 11.058594 Z M 38.917969 14.316406 C 38.273438 14.316406 37.734375 13.78125 37.734375 13.046875 C 37.734375 12.304688 38.273438 11.761719 38.917969 11.761719 C 39.554688 11.761719 40.058594 12.304688 40.058594 13.046875 C 40.058594 13.78125 39.554688 14.316406 38.917969 14.316406 Z M 51.140625 8.828125 L 48.898438 8.828125 L 48.898438 15.019531 L 49.832031 15.019531 L 49.832031 12.671875 L 51.140625 12.671875 C 52.175781 12.671875 53.195312 11.929688 53.195312 10.75 C 53.195312 9.570312 52.175781 8.824219 51.140625 8.824219 Z M 51.164062 11.808594 L 49.832031 11.808594 L 49.832031 9.6875 L 51.164062 9.6875 C 51.757812 9.679688 52.25 10.152344 52.261719 10.75 C 52.261719 11.226562 51.859375 11.8125 51.164062 11.8125 Z M 56.941406 10.921875 C 56.265625 10.921875 55.5625 11.214844 55.273438 11.867188 L 56.105469 12.210938 C 56.28125 11.867188 56.609375 11.757812 56.957031 11.757812 C 57.441406 11.757812 57.933594 12.046875 57.941406 12.554688 L 57.941406 12.617188 C 57.773438 12.523438 57.410156 12.378906 56.964844 12.378906 C 56.074219 12.378906 55.164062 12.867188 55.164062 13.773438 C 55.164062 14.601562 55.894531 15.136719 56.71875 15.136719 C 57.347656 15.136719 57.691406 14.855469 57.910156 14.53125 L 57.941406 14.53125 L 57.941406 15.007812 L 58.84375 15.007812 L 58.84375 12.632812 C 58.84375 11.535156 58.015625 10.921875 56.941406 10.921875 Z M 56.828125 14.316406 C 56.523438 14.316406 56.097656 14.164062 56.097656 13.789062 C 56.097656 13.308594 56.628906 13.125 57.089844 13.125 C 57.5 13.125 57.691406 13.214844 57.941406 13.335938 C 57.871094 13.90625 57.371094 14.316406 56.828125 14.316406 Z M 62.132812 11.054688 L 61.058594 13.742188 L 61.027344 13.742188 L 59.917969 11.054688 L 58.910156 11.054688 L 60.578125 14.808594 L 59.625 16.894531 L 60.601562 16.894531 L 63.175781 11.054688 Z M 53.707031 15.019531 L 54.644531 15.019531 L 54.644531 8.824219 L 53.707031 8.824219 Z M 53.707031 15.019531 "/>
<path style=" stroke:none;fill-rule:nonzero;fill:url(#linear0);" d="M 5.34375 3.890625 C 5.195312 4.042969 5.113281 4.28125 5.113281 4.589844 L 5.113281 15.542969 C 5.113281 15.851562 5.195312 16.085938 5.34375 16.238281 L 5.378906 16.273438 L 11.589844 10.136719 L 11.589844 9.992188 L 5.378906 3.855469 Z M 5.34375 3.890625 "/>
<path style=" stroke:none;fill-rule:nonzero;fill:url(#linear1);" d="M 13.660156 12.183594 L 11.589844 10.136719 L 11.589844 9.992188 L 13.660156 7.945312 L 13.707031 7.972656 L 16.160156 9.351562 C 16.859375 9.742188 16.859375 10.386719 16.160156 10.78125 L 13.710938 12.15625 Z M 13.660156 12.183594 "/>
<path style=" stroke:none;fill-rule:nonzero;fill:url(#linear2);" d="M 13.710938 12.15625 L 11.589844 10.0625 L 5.34375 16.238281 C 5.574219 16.480469 5.957031 16.511719 6.386719 16.269531 L 13.710938 12.15625 "/>
<path style=" stroke:none;fill-rule:nonzero;fill:url(#linear3);" d="M 13.710938 7.972656 L 6.386719 3.859375 C 5.953125 3.621094 5.574219 3.648438 5.34375 3.890625 L 11.589844 10.0625 Z M 13.710938 7.972656 "/>
</g>
</svg>
