<?xml version="1.0" encoding="UTF-8"?>
<svg xmlns="http://www.w3.org/2000/svg" xmlns:xlink="http://www.w3.org/1999/xlink" width="px" height="20px" viewBox="0 0 55 20" version="1.1">
<g id="surface1">
<path style=" stroke:none;fill-rule:nonzero;fill:rgb(0%,0%,0%);fill-opacity:1;" d="M 0.144531 0.148438 L 54.859375 0.148438 L 54.859375 19.859375 L 0.144531 19.859375 Z M 0.144531 0.148438 "/>
<path style=" stroke:none;fill-rule:nonzero;fill:rgb(82.352941%,82.352941%,82.352941%);fill-opacity:1;" d="M 0.285156 0.289062 L 54.714844 0.289062 L 54.714844 19.710938 L 0.285156 19.710938 Z M 0 20 L 55 20 L 55 0 L 0 0 Z M 0 20 "/>
<path style=" stroke:none;fill-rule:nonzero;fill:rgb(94.901961%,31.372549%,13.333333%);fill-opacity:1;" d="M 4.488281 4.398438 L 9.824219 4.398438 L 9.824219 9.769531 L 4.488281 9.769531 Z M 4.488281 4.398438 "/>
<path style=" stroke:none;fill-rule:nonzero;fill:rgb(49.803922%,72.941176%,0%);fill-opacity:1;" d="M 10.375 4.398438 L 15.710938 4.398438 L 15.710938 9.769531 L 10.375 9.769531 Z M 10.375 4.398438 "/>
<path style=" stroke:none;fill-rule:nonzero;fill:rgb(0%,64.313725%,93.72549%);fill-opacity:1;" d="M 4.488281 10.320312 L 9.824219 10.320312 L 9.824219 15.691406 L 4.488281 15.691406 Z M 4.488281 10.320312 "/>
<path style=" stroke:none;fill-rule:nonzero;fill:rgb(100%,72.54902%,0%);fill-opacity:1;" d="M 10.375 10.320312 L 15.710938 10.320312 L 15.710938 15.691406 L 10.375 15.691406 Z M 10.375 10.320312 "/>
<path style=" stroke:none;fill-rule:nonzero;fill:rgb(100%,100%,100%);fill-opacity:1;" d="M 25.992188 10.449219 C 25.992188 10.289062 26.046875 10.160156 26.164062 10.050781 C 26.277344 9.941406 26.410156 9.890625 26.570312 9.890625 C 26.734375 9.890625 26.875 9.949219 26.984375 10.058594 C 27.09375 10.167969 27.148438 10.300781 27.148438 10.449219 C 27.148438 10.601562 27.09375 10.738281 26.976562 10.839844 C 26.863281 10.949219 26.730469 11 26.5625 11 C 26.398438 11 26.265625 10.949219 26.152344 10.839844 C 26.046875 10.730469 25.992188 10.601562 25.992188 10.449219 M 27.042969 15.691406 L 26.09375 15.691406 L 26.09375 11.621094 L 27.042969 11.621094 Z M 29.933594 14.992188 C 30.070312 14.992188 30.230469 14.960938 30.402344 14.898438 C 30.574219 14.832031 30.726562 14.742188 30.875 14.632812 L 30.875 15.527344 C 30.722656 15.617188 30.550781 15.679688 30.359375 15.722656 C 30.167969 15.769531 29.949219 15.792969 29.722656 15.792969 C 29.128906 15.792969 28.644531 15.601562 28.269531 15.222656 C 27.894531 14.847656 27.710938 14.359375 27.710938 13.777344 C 27.710938 13.121094 27.902344 12.582031 28.28125 12.160156 C 28.664062 11.738281 29.199219 11.527344 29.898438 11.527344 C 30.078125 11.527344 30.257812 11.550781 30.441406 11.597656 C 30.625 11.640625 30.765625 11.699219 30.875 11.757812 L 30.875 12.671875 C 30.726562 12.5625 30.574219 12.480469 30.421875 12.421875 C 30.269531 12.367188 30.109375 12.332031 29.949219 12.332031 C 29.574219 12.332031 29.277344 12.457031 29.039062 12.699219 C 28.8125 12.941406 28.695312 13.277344 28.695312 13.691406 C 28.695312 14.101562 28.804688 14.421875 29.027344 14.652344 C 29.25 14.882812 29.550781 14.992188 29.933594 14.992188 M 33.578125 11.558594 C 33.65625 11.558594 33.726562 11.5625 33.78125 11.570312 C 33.839844 11.582031 33.898438 11.597656 33.9375 11.609375 L 33.9375 12.578125 C 33.886719 12.539062 33.816406 12.507812 33.71875 12.472656 C 33.625 12.441406 33.507812 12.421875 33.371094 12.421875 C 33.132812 12.421875 32.9375 12.519531 32.777344 12.71875 C 32.617188 12.917969 32.535156 13.21875 32.535156 13.632812 L 32.535156 15.691406 L 31.585938 15.691406 L 31.585938 11.621094 L 32.535156 11.621094 L 32.535156 12.261719 L 32.546875 12.261719 C 32.636719 12.039062 32.765625 11.867188 32.941406 11.742188 C 33.121094 11.621094 33.332031 11.558594 33.578125 11.558594 M 33.988281 13.71875 C 33.988281 13.042969 34.175781 12.511719 34.554688 12.117188 C 34.929688 11.722656 35.457031 11.527344 36.125 11.527344 C 36.753906 11.527344 37.253906 11.71875 37.609375 12.097656 C 37.964844 12.472656 38.144531 12.988281 38.144531 13.628906 C 38.144531 14.289062 37.953125 14.8125 37.578125 15.207031 C 37.203125 15.597656 36.6875 15.789062 36.035156 15.789062 C 35.414062 15.789062 34.910156 15.601562 34.546875 15.230469 C 34.171875 14.867188 33.988281 14.359375 33.988281 13.71875 M 34.980469 13.6875 C 34.980469 14.109375 35.074219 14.4375 35.265625 14.660156 C 35.457031 14.882812 35.730469 14.992188 36.085938 14.992188 C 36.429688 14.992188 36.699219 14.882812 36.875 14.660156 C 37.054688 14.4375 37.152344 14.101562 37.152344 13.660156 C 37.152344 13.222656 37.054688 12.890625 36.871094 12.667969 C 36.6875 12.441406 36.417969 12.332031 36.082031 12.332031 C 35.730469 12.332031 35.464844 12.449219 35.265625 12.6875 C 35.074219 12.921875 34.980469 13.25 34.980469 13.6875 M 39.558594 12.691406 C 39.558594 12.828125 39.601562 12.9375 39.683594 13.011719 C 39.773438 13.089844 39.964844 13.1875 40.257812 13.308594 C 40.640625 13.460938 40.90625 13.632812 41.058594 13.828125 C 41.210938 14.019531 41.289062 14.25 41.289062 14.519531 C 41.289062 14.902344 41.140625 15.210938 40.847656 15.441406 C 40.554688 15.671875 40.160156 15.789062 39.664062 15.789062 C 39.5 15.789062 39.316406 15.769531 39.109375 15.722656 C 38.90625 15.6875 38.734375 15.628906 38.59375 15.570312 L 38.59375 14.628906 C 38.765625 14.75 38.953125 14.847656 39.15625 14.917969 C 39.351562 14.988281 39.539062 15.027344 39.695312 15.027344 C 39.914062 15.027344 40.074219 14.992188 40.175781 14.9375 C 40.277344 14.878906 40.328125 14.777344 40.328125 14.628906 C 40.328125 14.492188 40.277344 14.382812 40.167969 14.292969 C 40.058594 14.207031 39.863281 14.097656 39.5625 13.980469 C 39.214844 13.832031 38.964844 13.667969 38.816406 13.480469 C 38.671875 13.292969 38.59375 13.058594 38.59375 12.777344 C 38.59375 12.410156 38.742188 12.109375 39.027344 11.871094 C 39.316406 11.632812 39.691406 11.519531 40.15625 11.519531 C 40.296875 11.519531 40.453125 11.53125 40.632812 11.5625 C 40.8125 11.597656 40.957031 11.632812 41.070312 11.6875 L 41.070312 12.597656 C 40.945312 12.511719 40.796875 12.441406 40.632812 12.378906 C 40.46875 12.320312 40.296875 12.289062 40.136719 12.289062 C 39.957031 12.289062 39.8125 12.328125 39.714844 12.398438 C 39.609375 12.46875 39.558594 12.570312 39.558594 12.691406 M 41.707031 13.71875 C 41.707031 13.042969 41.898438 12.511719 42.273438 12.117188 C 42.652344 11.722656 43.179688 11.527344 43.847656 11.527344 C 44.476562 11.527344 44.972656 11.71875 45.332031 12.097656 C 45.6875 12.472656 45.863281 12.988281 45.863281 13.628906 C 45.863281 14.289062 45.675781 14.8125 45.296875 15.207031 C 44.921875 15.597656 44.40625 15.789062 43.757812 15.789062 C 43.132812 15.789062 42.632812 15.601562 42.269531 15.230469 C 41.894531 14.867188 41.707031 14.359375 41.707031 13.71875 M 42.695312 13.6875 C 42.695312 14.109375 42.789062 14.4375 42.980469 14.660156 C 43.171875 14.882812 43.445312 14.992188 43.800781 14.992188 C 44.144531 14.992188 44.414062 14.882812 44.59375 14.660156 C 44.769531 14.4375 44.867188 14.101562 44.867188 13.660156 C 44.867188 13.222656 44.769531 12.890625 44.585938 12.667969 C 44.402344 12.441406 44.132812 12.332031 43.796875 12.332031 C 43.445312 12.332031 43.179688 12.449219 42.980469 12.6875 C 42.789062 12.921875 42.695312 13.25 42.695312 13.6875 M 49.003906 12.410156 L 49.003906 14.5 C 49.003906 14.9375 49.105469 15.257812 49.300781 15.472656 C 49.5 15.691406 49.804688 15.792969 50.207031 15.792969 C 50.339844 15.792969 50.480469 15.78125 50.621094 15.75 C 50.761719 15.71875 50.863281 15.691406 50.917969 15.652344 L 50.917969 14.859375 C 50.863281 14.898438 50.792969 14.929688 50.714844 14.957031 C 50.640625 14.980469 50.570312 14.992188 50.519531 14.992188 C 50.328125 14.992188 50.179688 14.941406 50.09375 14.839844 C 50.003906 14.738281 49.957031 14.558594 49.957031 14.308594 L 49.957031 12.402344 L 50.925781 12.402344 L 50.925781 11.621094 L 49.964844 11.621094 L 49.964844 10.417969 L 49.011719 10.710938 L 49.011719 11.628906 L 47.589844 11.628906 L 47.589844 11.132812 C 47.589844 10.890625 47.640625 10.707031 47.75 10.578125 C 47.859375 10.449219 48.011719 10.390625 48.207031 10.390625 C 48.308594 10.390625 48.398438 10.402344 48.480469 10.429688 C 48.558594 10.457031 48.613281 10.480469 48.648438 10.5 L 48.648438 9.671875 C 48.578125 9.648438 48.5 9.632812 48.410156 9.621094 C 48.324219 9.609375 48.21875 9.601562 48.105469 9.601562 C 47.671875 9.601562 47.316406 9.738281 47.042969 10.011719 C 46.769531 10.289062 46.628906 10.632812 46.628906 11.0625 L 46.628906 11.628906 L 45.953125 11.628906 L 45.953125 12.410156 L 46.628906 12.410156 L 46.628906 15.699219 L 47.589844 15.699219 L 47.589844 12.410156 Z M 25.175781 10.011719 L 25.175781 15.691406 L 24.195312 15.691406 L 24.195312 11.242188 L 24.183594 11.242188 L 22.433594 15.691406 L 21.785156 15.691406 L 19.988281 11.242188 L 19.976562 11.242188 L 19.976562 15.691406 L 19.070312 15.691406 L 19.070312 10.011719 L 20.472656 10.011719 L 22.09375 14.222656 L 22.121094 14.222656 L 23.832031 10.011719 Z M 21.644531 7.558594 C 21.304688 7.75 20.925781 7.847656 20.496094 7.847656 C 20.171875 7.847656 19.886719 7.777344 19.632812 7.628906 C 19.382812 7.488281 19.1875 7.28125 19.050781 7.019531 C 18.917969 6.757812 18.847656 6.460938 18.847656 6.132812 C 18.847656 5.789062 18.925781 5.472656 19.070312 5.207031 C 19.21875 4.9375 19.429688 4.71875 19.703125 4.5625 C 19.976562 4.410156 20.28125 4.332031 20.625 4.332031 C 20.796875 4.332031 20.96875 4.351562 21.140625 4.382812 C 21.3125 4.417969 21.453125 4.460938 21.5625 4.511719 L 21.5625 5.027344 C 21.304688 4.851562 20.980469 4.769531 20.585938 4.769531 C 20.351562 4.769531 20.140625 4.828125 19.949219 4.941406 C 19.757812 5.058594 19.613281 5.21875 19.511719 5.417969 C 19.410156 5.621094 19.359375 5.851562 19.359375 6.109375 C 19.359375 6.511719 19.464844 6.832031 19.675781 7.070312 C 19.886719 7.308594 20.179688 7.421875 20.546875 7.421875 C 20.785156 7.421875 20.996094 7.378906 21.171875 7.28125 L 21.171875 6.402344 L 20.453125 6.402344 L 20.453125 5.980469 L 21.644531 5.980469 Z M 24.386719 6.707031 L 22.71875 6.707031 C 22.726562 6.949219 22.800781 7.132812 22.929688 7.269531 C 23.0625 7.398438 23.234375 7.46875 23.453125 7.46875 C 23.738281 7.46875 23.984375 7.382812 24.203125 7.21875 L 24.203125 7.628906 C 24.105469 7.691406 23.984375 7.75 23.839844 7.789062 C 23.691406 7.828125 23.539062 7.847656 23.386719 7.847656 C 23.023438 7.847656 22.738281 7.738281 22.542969 7.519531 C 22.34375 7.300781 22.242188 6.992188 22.242188 6.597656 C 22.242188 6.351562 22.292969 6.128906 22.386719 5.9375 C 22.484375 5.738281 22.625 5.582031 22.796875 5.472656 C 22.96875 5.367188 23.164062 5.308594 23.375 5.308594 C 23.6875 5.308594 23.933594 5.410156 24.113281 5.617188 C 24.292969 5.820312 24.378906 6.101562 24.378906 6.46875 L 24.378906 6.707031 Z M 23.921875 6.339844 C 23.921875 6.128906 23.871094 5.96875 23.777344 5.859375 C 23.679688 5.75 23.546875 5.691406 23.367188 5.691406 C 23.210938 5.691406 23.070312 5.75 22.949219 5.867188 C 22.828125 5.980469 22.757812 6.140625 22.71875 6.339844 Z M 26.195312 7.761719 C 26.152344 7.789062 26.09375 7.808594 26.011719 7.820312 C 25.933594 7.832031 25.863281 7.839844 25.800781 7.839844 C 25.355469 7.839844 25.132812 7.589844 25.132812 7.097656 L 25.132812 5.75 L 24.722656 5.75 L 24.722656 5.367188 L 25.132812 5.367188 L 25.132812 4.789062 L 25.597656 4.640625 L 25.597656 5.359375 L 26.1875 5.359375 L 26.1875 5.742188 L 25.597656 5.742188 L 25.597656 7.011719 C 25.597656 7.171875 25.621094 7.289062 25.671875 7.351562 C 25.722656 7.417969 25.8125 7.449219 25.945312 7.449219 C 26.035156 7.449219 26.117188 7.421875 26.1875 7.371094 L 26.1875 7.761719 Z M 28.5 4.507812 C 28.5 4.582031 28.472656 4.648438 28.417969 4.707031 C 28.359375 4.761719 28.289062 4.789062 28.207031 4.789062 C 28.125 4.789062 28.054688 4.761719 27.996094 4.707031 C 27.9375 4.652344 27.914062 4.582031 27.914062 4.5 C 27.914062 4.417969 27.945312 4.347656 28.003906 4.292969 C 28.058594 4.242188 28.128906 4.210938 28.207031 4.210938 C 28.28125 4.210938 28.351562 4.238281 28.410156 4.292969 C 28.472656 4.359375 28.5 4.421875 28.5 4.507812 M 28.4375 7.789062 L 27.972656 7.789062 L 27.972656 5.367188 L 28.4375 5.367188 Z M 30.453125 7.761719 C 30.410156 7.789062 30.351562 7.808594 30.269531 7.820312 C 30.191406 7.832031 30.121094 7.839844 30.058594 7.839844 C 29.613281 7.839844 29.390625 7.589844 29.390625 7.097656 L 29.390625 5.75 L 28.984375 5.75 L 28.984375 5.367188 L 29.390625 5.367188 L 29.390625 4.789062 L 29.855469 4.640625 L 29.855469 5.359375 L 30.449219 5.359375 L 30.449219 5.742188 L 29.855469 5.742188 L 29.855469 7.011719 C 29.855469 7.171875 29.878906 7.289062 29.933594 7.351562 C 29.984375 7.417969 30.070312 7.449219 30.207031 7.449219 C 30.292969 7.449219 30.378906 7.421875 30.449219 7.371094 L 30.449219 7.761719 Z M 33.496094 4.597656 C 33.421875 4.558594 33.335938 4.53125 33.242188 4.53125 C 32.980469 4.53125 32.855469 4.691406 32.855469 5.011719 L 32.855469 5.359375 L 33.402344 5.359375 L 33.402344 5.742188 L 32.855469 5.742188 L 32.855469 7.78125 L 32.390625 7.78125 L 32.390625 5.75 L 31.980469 5.75 L 31.980469 5.367188 L 32.390625 5.367188 L 32.390625 4.992188 C 32.390625 4.738281 32.457031 4.53125 32.605469 4.378906 C 32.75 4.222656 32.949219 4.148438 33.203125 4.148438 C 33.332031 4.148438 33.425781 4.160156 33.503906 4.191406 L 33.503906 4.597656 Z M 35.207031 5.832031 C 35.183594 5.8125 35.132812 5.792969 35.070312 5.777344 C 35.003906 5.761719 34.949219 5.75 34.902344 5.75 C 34.738281 5.75 34.605469 5.828125 34.503906 5.972656 C 34.402344 6.121094 34.347656 6.3125 34.347656 6.550781 L 34.347656 7.789062 L 33.886719 7.789062 L 33.886719 5.367188 L 34.347656 5.367188 L 34.347656 5.851562 L 34.363281 5.851562 C 34.414062 5.6875 34.496094 5.558594 34.605469 5.460938 C 34.710938 5.367188 34.839844 5.320312 34.980469 5.320312 C 35.074219 5.320312 35.152344 5.332031 35.203125 5.351562 L 35.203125 5.832031 Z M 37.863281 6.5625 C 37.863281 6.957031 37.75 7.269531 37.527344 7.5 C 37.304688 7.730469 37.003906 7.847656 36.636719 7.847656 C 36.273438 7.847656 35.980469 7.730469 35.761719 7.507812 C 35.546875 7.28125 35.4375 6.980469 35.4375 6.601562 C 35.4375 6.199219 35.550781 5.882812 35.777344 5.652344 C 36 5.421875 36.304688 5.308594 36.691406 5.308594 C 37.054688 5.308594 37.339844 5.417969 37.546875 5.640625 C 37.761719 5.867188 37.863281 6.171875 37.863281 6.5625 M 37.386719 6.578125 C 37.386719 6.289062 37.324219 6.070312 37.203125 5.921875 C 37.074219 5.777344 36.902344 5.699219 36.671875 5.699219 C 36.445312 5.699219 36.257812 5.777344 36.125 5.9375 C 35.992188 6.089844 35.929688 6.3125 35.929688 6.597656 C 35.929688 6.871094 35.992188 7.082031 36.125 7.238281 C 36.257812 7.390625 36.4375 7.46875 36.671875 7.46875 C 36.910156 7.46875 37.085938 7.390625 37.207031 7.242188 C 37.324219 7.082031 37.386719 6.867188 37.386719 6.578125 M 42.019531 7.789062 L 41.554688 7.789062 L 41.554688 6.410156 C 41.554688 6.160156 41.515625 5.980469 41.441406 5.867188 C 41.363281 5.75 41.230469 5.699219 41.046875 5.699219 C 40.894531 5.699219 40.761719 5.769531 40.65625 5.910156 C 40.550781 6.050781 40.5 6.222656 40.5 6.417969 L 40.5 7.789062 L 40.035156 7.789062 L 40.035156 6.367188 C 40.035156 5.921875 39.863281 5.699219 39.523438 5.699219 C 39.367188 5.699219 39.230469 5.769531 39.128906 5.902344 C 39.027344 6.039062 38.976562 6.210938 38.976562 6.421875 L 38.976562 7.792969 L 38.511719 7.792969 L 38.511719 5.367188 L 38.976562 5.367188 L 38.976562 5.742188 L 38.984375 5.742188 C 39.15625 5.449219 39.410156 5.308594 39.734375 5.308594 C 39.886719 5.308594 40.027344 5.351562 40.15625 5.4375 C 40.277344 5.519531 40.363281 5.640625 40.421875 5.792969 C 40.519531 5.628906 40.625 5.507812 40.761719 5.421875 C 40.894531 5.347656 41.046875 5.300781 41.222656 5.300781 C 41.753906 5.300781 42.015625 5.628906 42.015625 6.289062 L 42.015625 7.789062 Z M 42.019531 7.789062 "/>
</g>
</svg>
