<?xml version="1.0" encoding="UTF-8"?>
<svg xmlns="http://www.w3.org/2000/svg" xmlns:xlink="http://www.w3.org/1999/xlink" width="px" height="30px" viewBox="0 0 30 30" version="1.1">
<g id="surface1">
<path style=" stroke:none;fill-rule:nonzero;fill:rgb(0%,60%,100%);fill-opacity:1;" d="M 26.667969 0 L 3.332031 0 C 1.5 0 0 1.5 0 3.332031 L 0 26.667969 C 0 28.5 1.5 30 3.332031 30 L 26.667969 30 C 28.5 30 30 28.5 30 26.667969 L 30 3.332031 C 30 1.5 28.5 0 26.667969 0 Z M 14.976562 24.210938 C 20.070312 24.210938 24.210938 20.070312 24.210938 14.976562 C 24.210938 14.410156 24.140625 13.867188 24.039062 13.332031 L 26.675781 13.332031 L 26.675781 25.359375 C 26.675781 25.992188 26.164062 26.507812 25.519531 26.507812 L 4.480469 26.507812 C 3.847656 26.507812 3.324219 25.992188 3.324219 25.359375 L 3.324219 13.335938 L 5.902344 13.335938 C 5.800781 13.867188 5.730469 14.410156 5.730469 14.976562 C 5.738281 20.070312 9.867188 24.210938 14.976562 24.210938 Z M 9.203125 14.976562 C 9.203125 11.792969 11.792969 9.203125 14.976562 9.203125 C 18.15625 9.203125 20.746094 11.78125 20.746094 14.976562 C 20.746094 18.167969 18.15625 20.746094 14.976562 20.746094 C 11.78125 20.746094 9.203125 18.167969 9.203125 14.976562 Z M 25.507812 8.339844 L 22.820312 8.339844 C 22.183594 8.339844 21.660156 7.816406 21.660156 7.179688 L 21.660156 4.480469 C 21.660156 3.847656 22.175781 3.332031 22.808594 3.332031 L 25.5 3.332031 C 26.144531 3.332031 26.65625 3.847656 26.65625 4.480469 L 26.65625 7.171875 C 26.667969 7.816406 26.152344 8.339844 25.507812 8.339844 Z M 25.507812 8.339844 "/>
</g>
</svg>
