<?xml version="1.0" encoding="UTF-8"?>
<svg xmlns="http://www.w3.org/2000/svg" xmlns:xlink="http://www.w3.org/1999/xlink" width="px" height="30px" viewBox="0 0 36 30" version="1.1">
<g id="surface1">
<path style=" stroke:none;fill-rule:nonzero;fill:rgb(100%,100%,100%);fill-opacity:1;" d="M 36.039062 3.5625 C 34.707031 4.164062 33.289062 4.574219 31.792969 4.753906 C 33.320312 3.8125 34.492188 2.328125 35.042969 0.5625 C 33.613281 1.433594 32.027344 2.066406 30.34375 2.398438 C 28.996094 0.921875 27.078125 0 24.945312 0 C 20.867188 0 17.550781 3.390625 17.550781 7.585938 C 17.550781 8.175781 17.617188 8.757812 17.746094 9.3125 C 11.601562 9 6.152344 5.980469 2.503906 1.382812 C 1.867188 2.507812 1.507812 3.8125 1.507812 5.199219 C 1.507812 7.824219 2.808594 10.152344 4.792969 11.507812 C 3.582031 11.46875 2.445312 11.128906 1.449219 10.566406 L 1.449219 10.65625 C 1.449219 14.328125 4 17.398438 7.375 18.089844 C 6.761719 18.261719 6.105469 18.359375 5.429688 18.359375 C 4.949219 18.359375 4.488281 18.3125 4.039062 18.222656 C 4.980469 21.230469 7.707031 23.429688 10.945312 23.488281 C 8.414062 25.523438 5.222656 26.738281 1.761719 26.738281 C 1.164062 26.738281 0.578125 26.699219 0 26.628906 C 3.265625 28.785156 7.160156 30.039062 11.339844 30.039062 C 24.9375 30.039062 32.378906 18.480469 32.378906 8.457031 C 32.378906 8.128906 32.371094 7.804688 32.359375 7.476562 C 33.789062 6.421875 35.042969 5.085938 36.039062 3.5625 Z M 36.039062 3.5625 "/>
</g>
</svg>
